<?xml version="1.0" encoding="UTF-8"?>
<svg width="23px" height="23px" viewBox="0 0 23 23" version="1.1" xmlns="http://www.w3.org/2000/svg" xmlns:xlink="http://www.w3.org/1999/xlink">
    <!-- Generator: Sketch 63.1 (92452) - https://sketch.com -->
    <title>Path-3</title>
    <desc>Created with Sketch.</desc>
    <g id="Page-1" stroke="none" stroke-width="1" fill="none" fill-rule="evenodd">
        <g id="Web-x1" transform="translate(-824.000000, -197.000000)" fill="#56978A" fill-rule="nonzero">
            <g id="Tweetbutton" transform="translate(816.000000, 193.000000)">
                <g id="Group" transform="translate(8.000000, 4.000000)">
                    <path d="M6.4092064,16.1804779 C6.0644302,16.6488573 5.4063064,17.0587525 4.4348356,17.4101636 C3.4633648,17.7615746 2.4147484,17.9690601 1.2889864,18.0326199 C1.826086,18.637319 2.6794564,19.0578269 3.8490964,19.2941437 C5.6035564,19.6486188 6.989089,19.6486188 8.7870916,19.2941437 C10.5850948,18.9396686 13.2829834,17.7289846 15.1227394,16.1804779 C16.962496,14.6319711 18.045535,12.2171455 18.3685558,10.9576258 C18.583903,10.117946 18.6915766,8.93072196 18.6915766,7.39595353 L21.110211,5.79178999 L19.2097996,5.31540829 L20.0766822,3 L17.7429964,4.33119827 C16.2530194,3.44373275 15.1838752,3 14.5355626,3 C13.563094,3 13.1834632,3.05783302 12.3047806,3.67228973 C11.7189922,4.08192754 11.1394456,5.3231488 10.5661396,7.39595353 C10.160398,7.82568986 9.567382,8.04055802 8.7870916,8.04055802 C7.616656,8.04055802 5.8469506,6.71349889 4.4348356,5.79178999 C3.493426,5.1773174 2.7133594,4.47081731 2.0946364,3.67228973 C1.9350922,4.29505469 1.9350922,5.07147166 2.0946364,6.00154064 C2.2541806,6.93160963 2.544484,7.8475294 2.9655472,8.74929996 L1,8.45066844 C1.161487,9.37780974 1.5263656,10.2134622 2.0946364,10.9576258 C2.6629066,11.7017894 3.4429732,12.3388684 4.4348356,12.8688626 L2.569408,13.2746497 C2.7316762,13.9172149 3.1582384,14.4983848 3.8490964,15.0181595 C4.5399544,15.5379342 5.3933242,15.9253736 6.4092064,16.1804779 Z" id="Path-3"></path>
                </g>
            </g>
        </g>
    </g>
</svg>